<svg width="31" height="25" viewBox="0 0 31 25" fill="none" xmlns="http://www.w3.org/2000/svg">
<path d="M28.0684 0.0785522H3.56071C2.00387 0.0785522 0.748352 1.65207 0.748352 3.60323V20.7231C0.748352 22.6742 2.00387 24.2477 3.56071 24.2477H28.0684C29.6253 24.2477 30.8808 22.6742 30.8808 20.7231V3.60323C30.8808 1.65207 29.6253 0.0785522 28.0684 0.0785522ZM6.87528 20.7231C6.87528 18.3943 5.41888 16.569 3.56071 16.569V7.7573C5.41888 7.7573 6.87528 5.93203 6.87528 3.60323H24.7539C24.7539 5.93203 26.2103 7.7573 28.0684 7.7573V16.569C26.2103 16.569 24.7539 18.3943 24.7539 20.7231H6.87528Z" fill="black"/>
<path d="M15.8146 17.7649C18.4218 17.7649 20.5353 15.116 20.5353 11.8484C20.5353 8.58089 18.4218 5.93202 15.8146 5.93202C13.2074 5.93202 11.0938 8.58089 11.0938 11.8484C11.0938 15.116 13.2074 17.7649 15.8146 17.7649Z" fill="black"/>
</svg>
