<svg width="24" height="25" viewBox="0 0 24 25" fill="none" xmlns="http://www.w3.org/2000/svg">
<path d="M10.4062 0.323273C7.75412 0.323273 5.57727 2.59344 5.57727 5.3575C5.57727 6.84874 6.21168 8.19551 7.21171 9.12032C3.43623 10.5779 0.748352 14.5383 0.748352 19.1219C0.748376 19.4779 0.884095 19.8193 1.12566 20.0711C1.36722 20.3228 1.69484 20.4642 2.03647 20.4643H8.23272C8.486 19.4887 8.89157 18.5811 9.42614 17.7796H3.42652C3.9962 14.0087 6.92484 11.2066 10.4062 11.2066C10.8887 11.2066 11.3599 11.2623 11.8164 11.365C11.9731 9.72482 13.0884 8.36463 14.564 7.90431C14.9897 7.15561 15.2351 6.28453 15.2351 5.3575C15.2351 2.59344 13.0583 0.323273 10.4062 0.323273ZM10.4062 3.00792C11.6652 3.00792 12.6589 4.04351 12.6589 5.3575C12.6589 6.67149 11.6652 7.70723 10.4062 7.70723C9.14719 7.70723 8.15342 6.67149 8.15342 5.3575C8.15342 4.04351 9.14719 3.00792 10.4062 3.00792Z" fill="black"/>
<path d="M16.2009 8.37967C14.0793 8.37967 12.3378 10.1958 12.3378 12.4071C12.3378 13.6001 12.8453 14.6775 13.6453 15.4173C10.625 16.5833 8.47467 19.7517 8.47467 23.4186C8.4747 23.7034 8.58327 23.9765 8.77651 24.1779C8.96976 24.3793 9.23185 24.4924 9.50514 24.4925H16.2009H22.8967C23.17 24.4924 23.4321 24.3793 23.6253 24.1779C23.8186 23.9765 23.9272 23.7034 23.9272 23.4186C23.9272 19.7517 21.777 16.5834 18.7566 15.4173C19.5566 14.6775 20.0641 13.6001 20.0641 12.4071C20.0641 10.1958 18.3226 8.37967 16.2009 8.37967ZM16.2009 10.5274C17.2081 10.5274 18.0031 11.3559 18.0031 12.4071C18.0031 13.4583 17.2081 14.2869 16.2009 14.2869C15.1937 14.2869 14.3987 13.4583 14.3987 12.4071C14.3987 11.3559 15.1937 10.5274 16.2009 10.5274ZM16.2009 17.0863C18.986 17.0863 21.3289 19.328 21.7847 22.3447H16.2009H10.6172C11.073 19.328 13.4159 17.0863 16.2009 17.0863Z" fill="black"/>
</svg>
