<svg width="40" height="42" viewBox="0 0 40 42" fill="none" xmlns="http://www.w3.org/2000/svg">
<path fill-rule="evenodd" clip-rule="evenodd" d="M4.13069 20.2427C4.14679 20.0327 4.16246 19.8291 4.17899 19.6261C4.27994 18.386 4.51317 17.1747 4.87433 15.992C5.54051 13.8127 6.58613 11.8655 8.00379 10.1492C8.06906 10.0703 8.08255 10.0097 8.04338 9.90979C7.79667 9.27594 7.55647 8.63882 7.31498 8.00218C7.30453 7.97464 7.29583 7.94617 7.27886 7.89529C7.33064 7.9135 7.36719 7.92423 7.40287 7.9387C7.99639 8.18421 8.59121 8.42739 9.18256 8.67943C9.28394 8.72237 9.3466 8.70977 9.42884 8.63322C11.269 6.91559 13.3698 5.72677 15.7326 5.07286C16.4997 4.86049 17.2773 4.71253 18.0662 4.63551C18.3042 4.61264 18.5435 4.59677 18.782 4.57717C18.8055 4.5753 18.829 4.56783 18.8599 4.56177C18.8934 4.34193 18.9273 4.12396 18.9599 3.90552C19.0796 3.10224 19.1997 2.29943 19.3189 1.49662C19.3881 1.03267 19.4555 0.568724 19.5243 0.104775C19.526 0.0917055 19.5234 0.0763028 19.5295 0.0660343C19.5434 0.0426968 19.5613 0.0216931 19.5783 -0.000244141C19.5948 0.0202928 19.6222 0.0384961 19.6266 0.0618336C19.6492 0.180855 19.6666 0.301276 19.6844 0.421698C19.8015 1.2119 19.9185 2.00211 20.0356 2.79232C20.1178 3.34635 20.2001 3.90038 20.2827 4.45441C20.288 4.48849 20.2958 4.52209 20.3054 4.5669C20.3528 4.57204 20.4002 4.5795 20.4472 4.58277C23.9705 4.81194 27.0651 6.17019 29.7381 8.63929C29.8125 8.70744 29.87 8.72331 29.9631 8.6841C30.574 8.42552 31.1875 8.17394 31.8002 7.9205C31.842 7.90369 31.8829 7.88736 31.9225 7.87149C31.9303 7.88082 31.9333 7.88362 31.9351 7.88736C31.9368 7.89063 31.9399 7.89529 31.939 7.89763C31.6653 8.62716 31.3912 9.35622 31.1162 10.0876C33.4946 12.9978 34.803 16.3803 35.0297 20.2483C35.2521 20.287 35.4675 20.3248 35.6829 20.3617C36.3673 20.4789 37.0518 20.5956 37.7367 20.7122C38.1775 20.7879 38.6169 20.863 39.0577 20.9381C39.1004 20.9456 39.1504 20.94 39.1622 21.0231C39.1278 21.0348 39.0925 21.0525 39.0556 21.0595C38.4838 21.1585 37.9107 21.2555 37.3381 21.3536C36.6536 21.4702 35.9692 21.5874 35.2843 21.7045C35.2047 21.7181 35.1259 21.734 35.0423 21.7503C34.8713 25.7265 33.5616 29.2057 31.1157 32.2046C31.3807 32.9028 31.6479 33.6048 31.9251 34.3367C31.2328 34.051 30.5692 33.7761 29.9013 33.5002C28.5667 34.7777 27.0777 35.7845 25.4251 36.5089C23.7729 37.2333 22.0533 37.6319 20.2584 37.7201C20.1509 38.4422 20.0369 39.1563 19.9381 39.8732C19.7819 41.0098 19.6383 41.9204 19.5891 41.9998C19.5382 41.9942 19.5321 41.9526 19.5256 41.9083C19.4686 41.5176 19.4112 41.1269 19.3529 40.7358C19.2428 39.9927 19.1314 39.2497 19.0209 38.5075C18.9826 38.2504 18.9443 37.9927 18.9047 37.7257C18.8407 37.7192 18.7811 37.7117 18.7215 37.7085C16.6668 37.589 14.7131 37.0485 12.8594 36.0902C11.6358 35.4578 10.5106 34.6629 9.4841 33.708C9.40578 33.6356 9.34442 33.6221 9.24826 33.6627C8.64125 33.9199 8.03164 34.1691 7.42245 34.4211C7.38199 34.4379 7.34108 34.4547 7.26972 34.4837C7.55517 33.7313 7.8293 33.0092 8.10604 32.2788C5.62754 29.2785 4.29256 25.7746 4.11807 21.7508C4.02626 21.733 3.93227 21.7129 3.83785 21.6966C2.88143 21.5319 1.92458 21.368 0.96773 21.2042C0.687506 21.1561 0.406847 21.1108 0.127058 21.0618C0.0826748 21.0553 0.0404671 21.0343 0 21.0203C0.0108783 20.9507 0.0482995 20.9465 0.0848504 20.9409C0.753646 20.8271 1.42201 20.7132 2.0908 20.5988C2.75524 20.4854 3.41969 20.3715 4.08457 20.2572C4.09588 20.2548 4.10719 20.2497 4.13069 20.2427ZM8.58338 22.5181C8.05774 22.3986 4.61282 21.8217 4.49054 21.8362C4.55451 23.5253 4.85736 25.1636 5.40432 26.7492C6.22715 29.1315 7.50295 31.1964 9.2265 32.9383C10.944 34.6737 12.9338 35.9133 15.1913 36.6513C16.3783 37.0401 17.5914 37.2646 18.8455 37.3257C18.6258 35.8499 18.4086 34.3917 18.1906 32.9266C16.9918 32.7614 15.8531 32.4029 14.7714 31.8419C13.6853 31.279 12.7115 30.5425 11.8438 29.637C11.8051 29.6659 11.7711 29.6888 11.7389 29.7144C11.5022 29.8979 11.2651 30.0808 11.0288 30.2643C11.0058 30.282 10.9844 30.3053 10.9583 30.3151C10.94 30.3226 10.9122 30.3179 10.8957 30.3067C10.8865 30.3007 10.887 30.2661 10.8939 30.2498C10.9052 30.2223 10.9253 30.1999 10.9418 30.1747C11.1198 29.9105 11.2977 29.6458 11.4757 29.3807C11.494 29.3536 11.5088 29.3242 11.5275 29.292C10.709 28.3567 10.0472 27.3144 9.54371 26.1583C9.04027 25.0026 8.72306 23.79 8.58338 22.5181ZM20.3158 37.3276C21.4041 37.2711 22.4501 37.0956 23.4796 36.8011C24.5139 36.5056 25.5065 36.0949 26.4585 35.5712C27.408 35.0499 28.2948 34.4253 29.1211 33.7024C29.9509 32.9766 30.7015 32.1663 31.3703 31.2692C32.0365 30.3758 32.6108 29.4195 33.0877 28.3968C33.5681 27.3709 33.9349 26.3006 34.2091 25.1912C34.5124 23.9674 34.7038 22.1545 34.6464 21.8147C33.2905 22.0476 31.9351 22.2796 30.5783 22.5125C30.2768 25.124 29.2895 27.3807 27.6299 29.2995C27.8305 29.5978 28.0246 29.8871 28.2191 30.1765C28.2356 30.2013 28.2556 30.2246 28.2669 30.2517C28.2739 30.2675 28.2739 30.3016 28.2643 30.3077C28.2478 30.3184 28.2204 30.3221 28.2012 30.3161C28.1795 30.3081 28.1612 30.2871 28.1416 30.2722C27.951 30.1247 27.7596 29.9768 27.5694 29.8293C27.4876 29.7662 27.4054 29.7037 27.317 29.636C26.4516 30.5392 25.4817 31.2734 24.3999 31.8363C23.3156 32.4006 22.1734 32.7604 20.9702 32.9275C20.7531 34.3922 20.536 35.8499 20.3158 37.3276ZM18.8015 4.96364C16.3278 5.11206 14.0399 5.83599 11.9291 7.17697C9.33659 8.82366 7.3685 11.1009 6.02655 13.9948C5.12496 15.9383 4.62761 17.999 4.50142 20.1857C5.8834 19.9491 7.24927 19.7148 8.61645 19.4805C8.97282 16.9236 9.98537 14.7257 11.641 12.8666C11.6128 12.8232 11.5906 12.7873 11.5671 12.7523C11.3512 12.4312 11.135 12.1105 10.9196 11.7889C10.8996 11.7595 10.8613 11.7287 10.897 11.6872C10.9331 11.6452 10.9622 11.6853 10.9914 11.7049C11.0018 11.7119 11.0114 11.7203 11.021 11.7278C11.3134 11.9541 11.6062 12.181 11.8991 12.4078C11.9317 12.4326 11.9652 12.4559 12.0044 12.4839C13.7497 10.7555 15.797 9.71328 18.1462 9.36695C18.3651 7.89576 18.5814 6.4409 18.8015 4.96364ZM27.5233 12.8676C27.6786 13.0543 27.8288 13.2256 27.971 13.4039C29.3513 15.1369 30.2059 17.129 30.527 19.3834C30.5405 19.48 30.5414 19.481 30.6423 19.4982C31.07 19.5706 31.4991 19.6429 31.9268 19.7162C32.811 19.8684 33.6956 20.021 34.5802 20.1731C34.6024 20.1769 34.6255 20.1736 34.6586 20.1736C34.4976 17.4669 33.7731 14.9623 32.4485 12.6664C30.859 9.91025 28.6916 7.83882 25.9577 6.4577C24.1924 5.56575 22.3309 5.07753 20.3602 4.96597C20.5804 6.44464 20.7975 7.90183 21.0159 9.36835C23.3678 9.71608 25.4116 10.7579 27.1578 12.4872C27.1965 12.4587 27.2331 12.4326 27.2683 12.405C27.5616 12.1787 27.854 11.9513 28.1473 11.7264C28.1803 11.7007 28.2152 11.6396 28.2608 11.6839C28.317 11.7376 28.2508 11.7777 28.2265 11.8146C28.0172 12.1301 27.8048 12.4433 27.5938 12.7574C27.5694 12.7915 27.5485 12.8279 27.5233 12.8676ZM19.6274 41.2002C19.6309 41.2007 19.6344 41.2011 19.6379 41.2021C19.6466 41.1652 19.6574 41.1283 19.6631 41.091C19.778 40.3227 19.8924 39.554 20.0069 38.7857C20.1396 37.8877 20.2719 36.9906 20.4059 36.093C20.5312 35.2473 20.6596 34.4015 20.7853 33.5558C20.9189 32.6587 21.0507 31.7607 21.1843 30.8636C21.3101 30.0178 21.438 29.1721 21.5642 28.3259C21.6999 27.4162 21.8348 26.506 21.9719 25.5954C21.9819 25.5277 21.9754 25.4708 21.9423 25.4101C21.1895 24.0383 20.4389 22.6647 19.687 21.2919C19.674 21.2686 19.6557 21.2485 19.6274 21.2098C19.6274 27.8899 19.6274 34.5448 19.6274 41.2002ZM19.3694 21.0702C19.3668 21.0628 19.3646 21.0558 19.362 21.0483C13.1583 21.0483 6.95469 21.0483 0.751035 21.0483C0.794548 21.0716 0.840237 21.0847 0.886796 21.0926C1.42288 21.1855 1.95939 21.2775 2.49591 21.369C3.17645 21.4856 3.857 21.6023 4.53754 21.719C5.222 21.8362 5.90689 21.9529 6.59135 22.07C7.32803 22.1965 8.06427 22.3235 8.80095 22.4495C9.4854 22.5671 10.1703 22.6829 10.8548 22.8005C11.5914 22.927 12.3277 23.0544 13.0644 23.1804C13.801 23.3069 14.5381 23.4301 15.2739 23.5599C15.3562 23.5739 15.421 23.5617 15.4915 23.5169C16.7503 22.723 18.0096 21.9309 19.2689 21.1379C19.3033 21.1174 19.3359 21.0931 19.3694 21.0702ZM38.3341 20.9433C38.3345 20.9349 38.3358 20.9265 38.3363 20.9181C38.3219 20.9153 38.3071 20.912 38.2919 20.9092C37.9677 20.8537 37.644 20.7977 37.3198 20.7421C36.6828 20.6329 36.0466 20.5237 35.41 20.4145C34.7774 20.3062 34.1451 20.1983 33.5124 20.0896C32.8241 19.9715 32.1352 19.8534 31.4469 19.7353C30.8142 19.627 30.1819 19.5192 29.5493 19.4105C28.8609 19.2929 28.1725 19.1743 27.4837 19.0562C26.8475 18.947 26.2105 18.8378 25.5743 18.7286C25.0022 18.6301 24.4291 18.5321 23.8573 18.4331C23.7986 18.4233 23.7477 18.4322 23.6955 18.4653C22.4157 19.2723 21.1351 20.0779 19.855 20.8845C19.8367 20.8957 19.8219 20.9134 19.7884 20.9433C25.986 20.9433 32.1596 20.9433 38.3341 20.9433ZM19.5056 20.7561C19.513 20.7542 19.5204 20.7524 19.5278 20.7505C19.53 20.7248 19.5334 20.6996 19.5334 20.674C19.5321 14.0765 19.5308 7.47942 19.5282 0.881913C19.5282 0.878646 19.5243 0.874445 19.5208 0.872111C19.5186 0.870711 19.5147 0.872111 19.506 0.872111C19.503 0.887047 19.4995 0.902916 19.4969 0.919253C19.3942 1.60584 19.2911 2.2929 19.1892 2.97995C19.08 3.71415 18.9717 4.44835 18.8629 5.18301C18.7554 5.90834 18.6475 6.63414 18.5392 7.35993C18.4212 8.14967 18.3025 8.93941 18.185 9.72962C18.067 10.5198 17.9509 11.31 17.8329 12.0998C17.7233 12.8382 17.6123 13.577 17.5022 14.3154C17.4009 14.9936 17.3025 15.6727 17.1981 16.35C17.182 16.455 17.1916 16.54 17.2425 16.6333C17.9778 17.971 18.7102 19.3106 19.4434 20.6497C19.4629 20.6856 19.4847 20.7206 19.5056 20.7561ZM27.0921 29.4591C26.5956 29.075 26.1135 28.7016 25.6292 28.3263C25.4904 28.4519 25.359 28.5737 25.2232 28.6904C24.0953 29.6584 22.8235 30.3011 21.4097 30.6171C21.3157 30.6381 21.3075 30.6638 21.2944 30.7506C21.2191 31.2739 21.1382 31.7971 21.0599 32.3208C21.0464 32.4132 21.0364 32.5065 21.022 32.6195C21.9419 32.4902 22.8143 32.2386 23.6576 31.8685C24.9404 31.3056 26.0791 30.5046 27.0921 29.4591ZM12.0749 29.454C12.8303 30.3889 14.6117 31.5632 16.0815 32.1019C16.8056 32.3674 17.9317 32.6386 18.1401 32.5943C18.0427 31.9432 17.9461 31.2925 17.849 30.6409C16.206 30.2871 14.7722 29.5109 13.5334 28.3249C13.0422 28.7058 12.5626 29.0773 12.0749 29.454ZM11.6946 29.0559C12.0566 28.5177 12.4069 27.9963 12.7589 27.4736C12.2276 26.8113 11.7907 26.0976 11.4431 25.3205C11.0941 24.541 10.8526 23.7242 10.7042 22.8752C10.0881 22.7701 9.4854 22.6675 8.86317 22.5606C9.16819 25.0544 10.1107 27.2019 11.6946 29.0559ZM27.4632 29.0503C27.5072 29.0003 27.5411 28.9625 27.5733 28.9242C28.2534 28.1196 28.8182 27.2313 29.2664 26.2572C29.7838 25.1324 30.118 23.9468 30.2781 22.7048C30.2838 22.6605 30.282 22.6152 30.2846 22.562C29.6663 22.6679 29.0663 22.7706 28.4567 22.8756C28.156 24.6045 27.4706 26.1354 26.4028 27.474C26.7566 28.001 27.1073 28.5214 27.4632 29.0503ZM11.8064 13.1089C10.2277 14.8993 9.26001 16.9899 8.90233 19.4217C8.95237 19.4179 8.98414 19.4184 9.01503 19.4133C9.56329 19.3199 10.1116 19.2256 10.6594 19.1314C10.7599 19.1141 10.7603 19.1146 10.7834 19.0067C11.1237 17.4156 11.7946 16.0055 12.7937 14.7742C12.8172 14.7453 12.8385 14.7145 12.8642 14.68C12.5122 14.1586 12.1649 13.6414 11.8064 13.1089ZM26.2949 14.6856C27.3545 15.9663 28.0568 17.4357 28.401 19.1127C29.0154 19.2182 29.6285 19.3232 30.2468 19.4291C30.1197 18.3029 29.6859 16.7393 28.9144 15.3278C28.4762 14.5269 27.9615 13.7903 27.3527 13.1131C26.9946 13.6461 26.6465 14.1637 26.2949 14.6856ZM26.9298 12.6669C25.9577 11.7016 24.872 10.9553 23.6593 10.4227C22.8278 10.0577 21.968 9.80803 21.0616 9.67688C21.1617 10.3509 21.2596 11.0052 21.3566 11.6596C22.9009 12.0004 24.262 12.7168 25.4569 13.8062C25.9486 13.4258 26.4333 13.0501 26.9298 12.6669ZM13.7044 13.8053C14.9054 12.7107 16.2682 11.9971 17.7947 11.6606C17.8634 11.3936 18.0901 9.77769 18.0714 9.67874C16.7695 9.87525 15.542 10.3126 14.3893 10.9912C13.6083 11.4515 12.8916 12.0064 12.2315 12.6655C12.7284 13.0501 13.2119 13.4239 13.7044 13.8053ZM14.2697 27.7555C15.2805 28.6792 16.4092 29.3014 17.6985 29.637C17.5962 28.9457 17.4992 28.2736 17.3969 27.6015C17.2951 26.9317 17.2016 26.26 17.091 25.5716C16.1433 26.3053 15.2143 27.0241 14.2697 27.7555ZM22.0668 25.5692C21.8631 26.9396 21.6634 28.2797 21.4632 29.6258C21.877 29.5585 22.7186 29.2276 23.2877 28.9126C23.8873 28.5802 24.7411 27.9506 24.8725 27.7406C23.9439 27.0227 23.0153 26.3034 22.0668 25.5692ZM19.8689 20.5806C22.4592 17.7983 25.0596 15.0062 27.6582 12.2137C27.6347 12.2454 27.6021 12.2687 27.5699 12.293C25.7671 13.6877 23.9644 15.0832 22.1612 16.477C22.0972 16.5264 22.0476 16.5848 22.0076 16.6581C21.3109 17.9341 20.613 19.2093 19.915 20.4849C19.8963 20.5213 19.8798 20.5587 19.8689 20.5806ZM19.9555 21.2961C22.5554 24.0854 25.1601 26.8794 27.7591 29.6673C27.7443 29.6435 27.7239 29.609 27.7017 29.5758C26.3989 27.6393 25.0961 25.7018 23.7916 23.7666C23.7503 23.705 23.6937 23.649 23.6332 23.6108C22.4388 22.8556 21.2431 22.1036 20.0469 21.3503C20.0134 21.3288 19.9794 21.3101 19.9555 21.2961ZM11.3891 12.3126C11.4082 12.3439 11.4165 12.3588 11.4257 12.3728C12.7454 14.3346 14.0643 16.2963 15.3853 18.2571C15.4171 18.3047 15.4628 18.3472 15.5098 18.3771C16.7151 19.1384 17.9221 19.8973 19.1288 20.6567C19.154 20.6726 19.1823 20.6833 19.2023 20.6936C16.6037 17.9057 14.0029 15.1159 11.3891 12.3126ZM19.3002 21.4007C19.3015 21.404 19.3033 21.4077 19.305 21.411C16.7081 24.1965 14.1108 26.9821 11.514 29.7681C11.5436 29.7396 11.5797 29.7154 11.6145 29.6878C13.4072 28.3007 15.1991 26.9139 16.9923 25.5277C17.0597 25.4754 17.1124 25.4152 17.1541 25.3377C17.8508 24.0621 18.5487 22.7869 19.2462 21.5118C19.2658 21.4754 19.2819 21.4376 19.3002 21.4007ZM15.3201 23.6663C14.0834 23.4549 12.8703 23.2467 11.6532 23.0381C11.6732 23.3746 11.9813 24.3351 12.2676 24.9713C12.5509 25.6 13.1301 26.5429 13.3072 26.6586C13.9725 25.6691 14.6391 24.6791 15.3201 23.6663ZM27.5224 23.0362C26.8884 23.144 26.2806 23.2472 25.674 23.3526C25.0692 23.4572 24.4639 23.5561 23.8425 23.6696C24.5244 24.6824 25.1923 25.6747 25.8685 26.6801C26.6861 25.5991 27.2331 24.4024 27.5224 23.0362ZM11.7124 18.9498C12.9173 18.7435 14.1095 18.5414 15.3188 18.3304C14.6709 17.368 14.0373 16.4261 13.4024 15.4818C12.7397 16.1904 11.8995 17.9136 11.7124 18.9498ZM27.455 18.9512C27.1325 17.6457 26.573 16.5008 25.7628 15.4762C25.1214 16.4293 24.4878 17.3712 23.8417 18.3318C25.0522 18.5395 26.2392 18.743 27.455 18.9512ZM17.0941 16.4289C17.2821 15.1682 17.4661 13.9299 17.6545 12.6659C16.4566 12.9857 15.4001 13.5509 14.445 14.3784C15.3309 15.0641 16.2038 15.74 17.0941 16.4289ZM21.5068 12.6669C21.696 13.935 21.8801 15.1724 22.0672 16.4293C22.9597 15.7386 23.833 15.0627 24.7158 14.3794C23.7599 13.5523 22.706 12.9861 21.5068 12.6669ZM13.6848 28.2087C13.7188 28.2381 13.7384 28.254 13.7562 28.2712C14.9032 29.3443 16.2199 30.057 17.7063 30.4085C17.739 30.4164 17.7738 30.415 17.8147 30.4183C17.7973 30.2951 17.7829 30.1882 17.7664 30.0813C17.7494 29.9707 17.7316 29.8596 17.7128 29.7429C16.3931 29.4069 15.2213 28.7641 14.1922 27.8162C14.0234 27.9469 13.8628 28.071 13.6848 28.2087ZM21.3431 30.4337C22.914 30.079 24.2777 29.3406 25.473 28.2059C25.2972 28.0701 25.1344 27.9436 24.9682 27.8152C24.453 28.2885 23.9048 28.6867 23.3095 29.0124C22.716 29.3373 22.0924 29.5763 21.4454 29.7443C21.4119 29.9735 21.3797 30.191 21.3431 30.4337ZM26.2919 27.3093C27.3083 26.0182 27.9623 24.5685 28.2626 22.9106C28.0485 22.9466 27.8536 22.9788 27.6591 23.0147C27.6403 23.0184 27.6203 23.0446 27.6121 23.0656C27.599 23.0969 27.596 23.1333 27.5881 23.1669C27.304 24.4654 26.7683 25.6327 25.9916 26.6745C25.9694 26.7039 25.9494 26.7361 25.9272 26.7683C26.0473 26.9461 26.1631 27.1184 26.2919 27.3093ZM13.2336 26.7678C13.137 26.633 13.0439 26.5074 12.9551 26.3781C12.282 25.3956 11.8147 24.3099 11.5618 23.1207C11.5462 23.0469 11.5192 23.01 11.4457 23.0002C11.3051 22.9825 11.1659 22.9526 11.0258 22.9302C10.9875 22.9232 10.9487 22.9228 10.8991 22.919C11.202 24.5741 11.8547 26.0252 12.8611 27.2999C12.8807 27.2822 12.892 27.2752 12.8986 27.2659C13.0082 27.103 13.1174 26.9415 13.2336 26.7678ZM28.2056 19.0791C27.861 17.473 27.1913 16.0774 26.184 14.8503C26.056 15.0403 25.9381 15.2153 25.8189 15.3932C26.2357 15.9183 26.5878 16.4746 26.8797 17.0749C27.1735 17.6779 27.3945 18.3113 27.5555 18.9685C27.77 19.0049 27.9732 19.0399 28.2056 19.0791ZM12.9825 14.8587C12.527 15.3161 11.826 16.4928 11.4596 17.4086C11.2455 17.943 11.0754 18.4924 10.9592 19.0786C11.1846 19.0399 11.3913 19.0049 11.6036 18.9685C11.7651 18.3066 11.9874 17.6746 12.2807 17.0711C12.574 16.4681 12.9299 15.9103 13.3415 15.3908C13.2193 15.2097 13.1035 15.0375 12.9825 14.8587ZM17.7729 11.8664C16.2956 12.209 15.0046 12.889 13.858 13.9248C14.0325 14.0592 14.1961 14.1857 14.3663 14.3173C15.3453 13.4636 16.4427 12.8774 17.6693 12.5586C17.7037 12.3327 17.7363 12.1114 17.7729 11.8664ZM25.3024 13.9257C24.1554 12.89 22.8639 12.2076 21.3962 11.8697C21.4006 11.9238 21.4014 11.9616 21.4062 11.999C21.4263 12.1362 21.4489 12.2734 21.4685 12.4111C21.4889 12.5581 21.488 12.5586 21.6229 12.5959C22.7591 12.9087 23.7847 13.4599 24.7028 14.2412C24.7311 14.265 24.7611 14.2879 24.7963 14.3164C24.9621 14.188 25.1262 14.0615 25.3024 13.9257ZM31.7832 8.06146C31.7767 8.05445 31.7706 8.04792 31.7636 8.04092C31.1545 8.29343 30.5444 8.54594 29.9317 8.79939C30.3077 9.20079 30.6736 9.59193 31.0487 9.9924C31.2954 9.34502 31.5391 8.70324 31.7832 8.06146ZM7.43377 34.3115C8.06862 34.0491 8.67432 33.798 9.2835 33.5455C8.9119 33.1525 8.54726 32.767 8.17131 32.3693C7.92938 33.0083 7.68745 33.644 7.43377 34.3115ZM7.46684 8.07172C7.46074 8.07966 7.45509 8.08713 7.449 8.09459C7.68397 8.71024 7.91807 9.32588 8.15391 9.94432C8.51768 9.55646 8.86926 9.18212 9.22737 8.80032C8.63473 8.55528 8.05078 8.3135 7.46684 8.07172ZM30.014 33.441C30.5766 33.6739 31.1532 33.9129 31.7306 34.1514C31.5147 33.5194 31.2854 32.9079 31.0605 32.3292C30.7098 32.7016 30.3634 33.0694 30.014 33.441Z" fill="#F73859"/>
<path fill-rule="evenodd" clip-rule="evenodd" d="M22.2191 31.2012C22.3209 31.2036 22.3997 31.2941 22.3953 31.4048C22.3918 31.5102 22.3135 31.591 22.2152 31.5919C22.1129 31.5924 22.0311 31.5046 22.032 31.3945C22.0333 31.2848 22.1164 31.1989 22.2191 31.2012Z" fill="#F73859"/>
<path fill-rule="evenodd" clip-rule="evenodd" d="M24.6032 30.4675C24.5066 30.4652 24.4287 30.3788 24.4296 30.2743C24.43 30.1711 24.5109 30.0834 24.6054 30.082C24.705 30.0806 24.7872 30.173 24.7842 30.2832C24.7812 30.3877 24.6998 30.4703 24.6032 30.4675Z" fill="#F73859"/>
<path fill-rule="evenodd" clip-rule="evenodd" d="M14.7958 30.3303C14.7953 30.4409 14.714 30.5259 14.6095 30.524C14.5099 30.5221 14.4342 30.4418 14.4316 30.335C14.4294 30.2253 14.5099 30.1333 14.6113 30.1324C14.7118 30.1319 14.7962 30.2225 14.7958 30.3303Z" fill="#F73859"/>
<path fill-rule="evenodd" clip-rule="evenodd" d="M17.215 31.4178C17.2142 31.5275 17.1302 31.6167 17.0305 31.6134C16.9313 31.6097 16.8482 31.5135 16.8526 31.4085C16.8569 31.3035 16.9348 31.2241 17.034 31.2237C17.1402 31.2218 17.2159 31.3039 17.215 31.4178Z" fill="#F73859"/>
<path fill-rule="evenodd" clip-rule="evenodd" d="M10.9287 26.5496C10.826 26.551 10.7455 26.4642 10.746 26.3531C10.7464 26.2458 10.8195 26.1632 10.9183 26.159C11.0214 26.1543 11.1054 26.2383 11.108 26.348C11.1106 26.4577 11.031 26.5482 10.9287 26.5496Z" fill="#F73859"/>
<path fill-rule="evenodd" clip-rule="evenodd" d="M10.1586 23.7939C10.1503 23.9045 10.0654 23.9792 9.95927 23.9699C9.86049 23.9601 9.79218 23.8742 9.7974 23.7664C9.80306 23.6576 9.89182 23.5718 9.99103 23.5802C10.0911 23.589 10.1668 23.6847 10.1586 23.7939Z" fill="#F73859"/>
<path fill-rule="evenodd" clip-rule="evenodd" d="M29.1986 23.5802C29.2987 23.5825 29.3826 23.6768 29.3792 23.7837C29.3757 23.8915 29.2904 23.9746 29.1868 23.9704C29.0872 23.9657 29.0145 23.8845 29.0154 23.7771C29.0154 23.6661 29.0981 23.5774 29.1986 23.5802Z" fill="#F73859"/>
<path fill-rule="evenodd" clip-rule="evenodd" d="M28.4118 26.3293C28.4144 26.4446 28.34 26.5277 28.2339 26.5282C28.1307 26.5286 28.0467 26.4404 28.0485 26.3326C28.0494 26.2318 28.1303 26.1422 28.2247 26.1375C28.3261 26.1319 28.4096 26.2182 28.4118 26.3293Z" fill="#F73859"/>
<path fill-rule="evenodd" clip-rule="evenodd" d="M11.0536 15.9049C10.9474 15.9035 10.8722 15.8195 10.8752 15.7056C10.8783 15.6001 10.9557 15.5171 11.0527 15.5147C11.152 15.5124 11.2385 15.6034 11.239 15.7108C11.2399 15.8209 11.158 15.9059 11.0536 15.9049Z" fill="#F73859"/>
<path fill-rule="evenodd" clip-rule="evenodd" d="M10.2195 18.2471C10.2186 18.3507 10.1394 18.4343 10.0415 18.4357C9.94489 18.4366 9.86222 18.3526 9.86004 18.2508C9.85743 18.1449 9.94402 18.0525 10.0441 18.0548C10.1407 18.0576 10.2199 18.1444 10.2195 18.2471Z" fill="#F73859"/>
<path fill-rule="evenodd" clip-rule="evenodd" d="M29.1416 18.0837C29.2447 18.0823 29.3283 18.1677 29.3287 18.2765C29.3296 18.3829 29.243 18.4744 29.1429 18.4735C29.045 18.4725 28.9684 18.3904 28.9654 18.2844C28.9614 18.1696 29.0358 18.0856 29.1416 18.0837Z" fill="#F73859"/>
<path fill-rule="evenodd" clip-rule="evenodd" d="M28.3134 15.7369C28.316 15.8475 28.236 15.9376 28.135 15.9399C28.0358 15.9413 27.9484 15.8494 27.9484 15.743C27.9484 15.6398 28.0258 15.5549 28.1233 15.5507C28.2299 15.546 28.3104 15.6254 28.3134 15.7369Z" fill="#F73859"/>
<path fill-rule="evenodd" clip-rule="evenodd" d="M22.357 10.8421C22.3592 10.9541 22.2813 11.0405 22.1768 11.0409C22.0737 11.0414 21.9932 10.9551 21.9945 10.8444C21.9958 10.7399 22.0715 10.6554 22.169 10.6507C22.2704 10.6456 22.3548 10.7319 22.357 10.8421Z" fill="#F73859"/>
<path fill-rule="evenodd" clip-rule="evenodd" d="M24.7154 11.9049C24.7184 12.0081 24.6419 12.0986 24.5466 12.1042C24.4478 12.1103 24.3608 12.0193 24.3612 11.9105C24.3612 11.8069 24.44 11.7205 24.5357 11.7191C24.6319 11.7177 24.7124 11.8008 24.7154 11.9049Z" fill="#F73859"/>
<path fill-rule="evenodd" clip-rule="evenodd" d="M14.8749 11.8727C14.8771 11.9852 14.8 12.0734 14.6969 12.0743C14.5973 12.0752 14.5107 11.9838 14.5111 11.8773C14.5111 11.7737 14.5886 11.6897 14.6869 11.685C14.7944 11.6804 14.8727 11.7588 14.8749 11.8727Z" fill="#F73859"/>
<path fill-rule="evenodd" clip-rule="evenodd" d="M17.0967 10.6447C17.1989 10.6489 17.2777 10.7422 17.2712 10.8505C17.2651 10.9537 17.1824 11.0363 17.0871 11.0354C16.9866 11.0344 16.9052 10.9429 16.9074 10.8337C16.91 10.7226 16.9922 10.6405 17.0967 10.6447Z" fill="#F73859"/>
</svg>
